<svg xmlns="http://www.w3.org/2000/svg" width="800" height="400" viewBox="0 0 800 400">
  <defs>
    <linearGradient id="bg" x1="0%" y1="0%" x2="100%" y2="100%">
      <stop offset="0%" style="stop-color:#5b21b6"/>
      <stop offset="100%" style="stop-color:#7c3aed"/>
    </linearGradient>
    <linearGradient id="accent" x1="0%" y1="0%" x2="100%" y2="100%">
      <stop offset="0%" style="stop-color:#a78bfa"/>
      <stop offset="100%" style="stop-color:#c4b5fd"/>
    </linearGradient>
  </defs>
  <rect width="800" height="400" fill="url(#bg)"/>
  <circle cx="680" cy="80" r="120" fill="url(#accent)" opacity="0.08"/>
  <circle cx="120" cy="320" r="80" fill="url(#accent)" opacity="0.06"/>
  <g opacity="0.12" stroke="white" stroke-width="1.5" fill="none">
    <rect x="320" y="60" width="160" height="100" rx="8"/>
    <circle cx="400" cy="110" r="20"/>
    <line x1="380" y1="110" x2="340" y2="110"/>
    <line x1="420" y1="110" x2="460" y2="110"/>
    <line x1="400" y1="90" x2="400" y2="70"/>
    <line x1="400" y1="130" x2="400" y2="150"/>
    <circle cx="340" cy="110" r="4" fill="white"/>
    <circle cx="460" cy="110" r="4" fill="white"/>
    <circle cx="400" cy="70" r="4" fill="white"/>
    <circle cx="400" cy="150" r="4" fill="white"/>
  </g>
  <text x="400" y="220" text-anchor="middle" font-family="Arial,sans-serif" font-size="72" font-weight="bold" fill="white" opacity="0.95">AI Tools</text>
  <text x="400" y="280" text-anchor="middle" font-family="Arial,sans-serif" font-size="22" fill="white" opacity="0.6">Explore cutting-edge AI tools &amp; applications</text>
  <line x1="300" y1="300" x2="500" y2="300" stroke="white" stroke-width="1" opacity="0.2"/>
  <text x="400" y="330" text-anchor="middle" font-family="Arial,sans-serif" font-size="14" fill="white" opacity="0.4">AI TOOLS · RESOURCES · GUIDES</text>
</svg>
