<svg xmlns="http://www.w3.org/2000/svg" width="800" height="400" viewBox="0 0 800 400">
  <defs>
    <linearGradient id="bg" x1="0%" y1="0%" x2="100%" y2="100%">
      <stop offset="0%" style="stop-color:#065f46"/>
      <stop offset="100%" style="stop-color:#059669"/>
    </linearGradient>
    <linearGradient id="accent" x1="0%" y1="0%" x2="100%" y2="100%">
      <stop offset="0%" style="stop-color:#34d399"/>
      <stop offset="100%" style="stop-color:#6ee7b7"/>
    </linearGradient>
  </defs>
  <rect width="800" height="400" fill="url(#bg)"/>
  <circle cx="680" cy="80" r="120" fill="url(#accent)" opacity="0.08"/>
  <circle cx="120" cy="320" r="80" fill="url(#accent)" opacity="0.06"/>
  <g opacity="0.12" stroke="white" stroke-width="1.5" fill="none">
    <ellipse cx="400" cy="100" rx="50" ry="35"/>
    <path d="M370 85 Q400 60 430 85"/>
    <path d="M370 115 Q400 140 430 115"/>
    <circle cx="370" cy="85" r="4" fill="white"/>
    <circle cx="430" cy="85" r="4" fill="white"/>
    <circle cx="370" cy="115" r="4" fill="white"/>
    <circle cx="430" cy="115" r="4" fill="white"/>
    <circle cx="400" cy="75" r="3" fill="white"/>
    <circle cx="400" cy="125" r="3" fill="white"/>
    <line x1="350" y1="100" x2="320" y2="80" opacity="0.5"/>
    <line x1="450" y1="100" x2="480" y2="80" opacity="0.5"/>
    <circle cx="320" cy="80" r="3" fill="white"/>
    <circle cx="480" cy="80" r="3" fill="white"/>
  </g>
  <text x="400" y="220" text-anchor="middle" font-family="Arial,sans-serif" font-size="64" font-weight="bold" fill="white" opacity="0.95">AI Concepts</text>
  <text x="400" y="280" text-anchor="middle" font-family="Arial,sans-serif" font-size="22" fill="white" opacity="0.6">Understanding core AI concepts &amp; principles</text>
  <line x1="300" y1="300" x2="500" y2="300" stroke="white" stroke-width="1" opacity="0.2"/>
  <text x="400" y="330" text-anchor="middle" font-family="Arial,sans-serif" font-size="14" fill="white" opacity="0.4">AI CONCEPTS · FUNDAMENTALS · THEORY</text>
</svg>
